<svg width="470" height="403" viewBox="0 0 470 403" fill="none" xmlns="http://www.w3.org/2000/svg">
<g clip-path="url(#clip0_15_2)">
<path d="M401.416 235.399C390.817 239.158 379.24 254.117 370.596 275.316C367.514 282.682 367.514 282.758 364.056 283.81C362.477 284.261 359.921 285.689 358.418 286.967C355.712 289.222 355.561 289.523 355.561 293.958C355.561 299.897 356.689 303.881 358.718 305.309L360.297 306.437L355.636 319.592C348.721 339.136 344.286 353.043 343.759 356.952C343.459 359.508 343.759 361.086 344.887 363.341C348.194 369.806 355.261 374.316 358.267 371.836C360.297 370.107 361.5 367.025 365.409 352.667C369.769 336.505 376.309 315.457 379.616 306.662L381.946 300.648L386.231 299.897C388.562 299.446 393.072 298.844 396.154 298.544C402.168 298.017 405.174 296.739 405.174 294.635C405.099 292.229 402.318 287.042 399.086 283.584C395.928 280.127 395.703 280.051 392.245 280.352C390.215 280.578 388.637 280.578 388.637 280.427C388.637 280.277 389.839 277.044 391.343 273.211C394.049 266.145 397.281 260.432 399.837 258.101C401.19 256.823 401.341 256.899 401.792 258.552C403.145 262.762 406.979 264.942 410.887 263.664C414.872 262.311 417.352 257.425 417.803 250.058C418.104 244.721 417.954 243.894 416.074 240.737C412.917 235.249 407.354 233.22 401.416 235.399Z" fill="url(#paint0_linear_15_2)"/>
<path d="M159.606 2.37592C130.321 12.757 98.3353 54.0738 74.4502 112.623C65.9346 132.97 65.9346 133.178 56.3806 136.084C52.0189 137.33 44.9573 141.275 40.8033 144.805C33.3262 151.033 32.9108 151.864 32.9108 164.113C32.9108 180.516 36.0263 191.52 41.6341 195.464L45.9957 198.579L33.1185 234.913C14.0104 288.894 1.75631 327.304 0.302436 338.101C-0.528351 345.16 0.302436 349.52 3.41789 355.748C12.5565 373.604 32.0801 386.061 40.3879 379.21C45.9957 374.434 49.3189 365.922 60.1191 326.266C72.1655 281.627 90.2352 223.493 99.3738 199.202L105.812 182.592L117.651 180.516C124.09 179.27 136.552 177.609 145.067 176.778C161.683 175.325 169.991 171.795 169.991 165.982C169.783 159.338 162.098 145.012 153.167 135.462C144.444 125.911 143.821 125.703 134.267 126.534C128.659 127.157 124.297 127.157 124.297 126.741C124.297 126.326 127.621 117.398 131.775 106.81C139.252 87.2933 148.183 71.514 155.244 65.0777C158.983 61.5482 159.398 61.7558 160.644 66.3235C164.383 77.9503 174.975 83.9713 185.776 80.4418C196.784 76.7046 203.638 63.2091 204.884 42.8622C205.715 28.121 205.299 25.8372 200.107 17.1171C191.383 1.96066 176.014 -3.64512 159.606 2.37592Z" fill="url(#paint1_linear_15_2)"/>
<path d="M147.311 203.332C139.693 210.401 123.106 250.587 103.722 308.592C94.3675 336.771 89.6421 353.136 89.6421 357.978C89.6421 359.431 90.51 361.755 91.5708 363.11C93.9818 366.112 104.108 371.535 107.483 371.535C110.858 371.535 112.594 367.468 117.512 347.617C127.928 306.074 140.754 268.599 156.28 234.513C160.041 226.475 162.934 218.729 162.934 216.986C162.934 213.596 159.173 207.883 154.351 203.719C150.59 200.524 150.301 200.524 147.311 203.332Z" fill="url(#paint2_linear_15_2)"/>
<path d="M175.456 230.202C173.651 231.931 173.501 232.532 173.727 237.944C173.952 242.83 174.478 244.635 176.809 249.37C179.515 254.933 182.221 258.241 183.123 257.338C183.424 257.113 182.822 255.61 181.92 254.031C177.185 246.063 175.155 234.336 178.087 231.705C180.642 229.375 184.551 232.833 185.679 238.47C186.731 243.281 188.009 243.657 192.294 240.35C195.602 237.794 200.037 236.065 201.766 236.742C203.57 237.418 203.194 240.425 201.014 243.732C198.684 247.19 196.428 249.22 191.542 252.377C187.709 254.858 187.032 256.061 189.362 256.061C190.866 256.061 194.699 253.655 199.886 249.445C207.479 243.281 207.253 233.584 199.51 233.509C198.608 233.509 195.977 234.486 193.647 235.689L189.362 237.794L188.385 235.464C187.107 232.532 184.551 230.202 181.244 229.074C177.786 227.946 177.636 227.946 175.456 230.202Z" fill="url(#paint3_linear_15_2)"/>
<path d="M264.589 243.954C262.836 246.028 261.8 248.263 258.773 256.721C257.259 260.95 255.267 266.296 254.391 268.531L252.798 272.6L246.823 273.638C243.556 274.196 240.688 274.994 240.449 275.393C240.13 275.872 239.573 275.313 239.015 274.276C237.183 270.685 229.216 271.722 217.265 277.228L211.529 279.862L211.29 276.59C211.051 273.398 210.812 273.159 206.669 271.084C201.57 268.531 197.507 268.211 196.472 270.206C196.073 271.004 194.241 276.829 192.408 283.213C186.433 303.721 181.255 317.206 171.137 339.309C168.269 345.534 165.4 352.077 164.763 353.752C163.09 358.381 164.365 361.493 169.065 364.445C174.642 368.036 178.466 369.712 179.98 369.153C180.697 368.834 182.29 366.36 183.565 363.488C185.636 358.939 196.073 328.617 201.491 311.142C202.686 307.471 204.359 303.401 205.235 302.125C207.705 298.614 212.644 296.858 222.683 295.821C232.084 294.863 234.553 293.746 234.553 290.395C234.553 289.597 235.35 286.804 236.306 284.25C237.661 280.5 238.139 279.941 238.617 281.218C238.935 282.096 239.254 285.447 239.254 288.559L239.334 294.384H242.042H244.751L240.927 306.114C234.713 324.946 228.18 348.406 227.622 353.593L227.144 358.301L231.526 362.53C233.996 364.764 238.218 367.876 240.927 369.313C248.257 373.223 248.496 372.983 248.575 359.338C248.655 344.656 250.328 336.756 259.809 307.551C262.517 299.092 264.748 293.427 265.784 292.629C267.855 290.794 272.556 289.597 279.965 288.799C283.231 288.48 286.498 288.001 287.215 287.682C288.33 287.203 288.33 287.761 287.454 292.948C285.542 304.199 283.869 321.276 283.391 333.564C282.913 345.374 282.992 346.252 284.665 349.683C286.099 352.556 287.295 353.752 290.561 355.348C292.792 356.466 295.102 357.423 295.66 357.423C297.492 357.423 296.775 359.179 291.517 366.919C285.223 376.414 277.416 384.953 269.608 391.177C266.341 393.81 263.394 396.363 263.075 396.922C262.756 397.401 263.792 400.593 265.385 404.024C269.688 413.12 272.317 413.28 281.558 404.742C296.775 390.618 314.621 364.924 333.104 330.293C347.046 304.12 354.057 288.639 354.057 283.772C354.057 280.58 345.772 268.61 343.78 269.009C342.266 269.329 339.398 274.914 331.192 293.587C321.552 315.69 305.459 346.012 303.866 345.055C303.149 344.576 303.627 331.729 304.662 321.116C305.14 317.126 306.734 306.513 308.407 297.417C310.638 284.729 311.116 280.5 310.478 279.064C309.363 276.51 296.456 269.329 294.305 270.047C292.871 270.526 290.402 276.829 289.366 282.814C289.127 284.011 288.569 283.373 287.295 280.5C286.338 278.346 285.542 276.191 285.542 275.712C285.542 275.233 284.984 273.957 284.267 272.919C283.072 271.324 282.435 271.164 277.894 271.403C275.105 271.563 272.795 271.483 272.795 271.244C272.795 271.004 274.069 266.775 275.742 261.828L278.77 252.731L274.547 248.821C272.157 246.667 269.289 244.353 268.015 243.714C266.023 242.677 265.704 242.757 264.589 243.954Z" fill="url(#paint4_linear_15_2)"/>
<path d="M458.626 270.63C458.025 271.682 454.642 278.823 451.259 286.641C440.585 310.846 425.175 340.539 423.296 340.314C422.469 340.163 422.769 326.632 423.822 316.935C424.273 313.026 425.776 303.555 427.205 295.887C428.708 287.919 429.61 280.928 429.385 279.575C429.009 277.47 428.107 276.643 422.318 273.411C418.635 271.306 415.177 269.577 414.501 269.577C410.366 269.577 404.803 300.398 403.676 329.489C403.3 340.088 403.375 342.118 404.503 344.598C405.931 347.831 409.314 350.387 413.899 351.74L417.056 352.642L411.419 360.911C404.503 371.209 398.489 377.749 390.22 384.364C383.079 390.002 383.229 389.25 387.364 397.519C389.694 402.18 390.145 402.631 392.25 402.631C400.669 402.631 423.296 374.968 442.54 341.216C451.034 326.407 464.114 300.548 467.647 291.828C471.18 283.183 471.105 281.454 467.271 276.343C461.032 267.923 460.656 267.698 458.626 270.63Z" fill="url(#paint5_linear_15_2)"/>
<path d="M165.474 260.662C160.477 266.101 154.208 279.518 144.76 305.446C136.31 328.382 129.678 349.233 128.86 355.035C128.224 359.568 128.315 359.84 131.313 362.741C134.766 365.914 144.214 371.535 146.304 371.535C148.121 371.535 148.666 369.722 154.844 345.245C162.022 316.506 168.109 298.375 176.467 280.878C178.012 277.615 179.284 273.807 179.284 272.447C179.284 267.461 172.833 258.214 169.381 258.214C168.472 258.214 166.746 259.302 165.474 260.662Z" fill="url(#paint6_linear_15_2)"/>
</g>
<defs>
<linearGradient id="paint0_linear_15_2" x1="351.671" y1="254.211" x2="445.549" y2="330.532" gradientUnits="userSpaceOnUse">
<stop stop-color="#FF7EE9"/>
<stop offset="1" stop-color="#94369C"/>
</linearGradient>
<linearGradient id="paint1_linear_15_2" x1="22.1633" y1="54.3342" x2="281.469" y2="265.22" gradientUnits="userSpaceOnUse">
<stop stop-color="#FF7EE9"/>
<stop offset="1" stop-color="#94369C"/>
</linearGradient>
<linearGradient id="paint2_linear_15_2" x1="97.5576" y1="225.545" x2="205.705" y2="295.858" gradientUnits="userSpaceOnUse">
<stop stop-color="#FF7EE9"/>
<stop offset="1" stop-color="#94369C"/>
</linearGradient>
<linearGradient id="paint3_linear_15_2" x1="177.081" y1="232.49" x2="195.053" y2="262.103" gradientUnits="userSpaceOnUse">
<stop stop-color="#FF7EE9"/>
<stop offset="1" stop-color="#94369C"/>
</linearGradient>
<linearGradient id="paint4_linear_15_2" x1="184.581" y1="266.944" x2="286.399" y2="440.852" gradientUnits="userSpaceOnUse">
<stop stop-color="#FF7EE9"/>
<stop offset="1" stop-color="#94369C"/>
</linearGradient>
<linearGradient id="paint5_linear_15_2" x1="393.76" y1="287.988" x2="486.632" y2="377.919" gradientUnits="userSpaceOnUse">
<stop stop-color="#FF7EE9"/>
<stop offset="1" stop-color="#94369C"/>
</linearGradient>
<linearGradient id="paint6_linear_15_2" x1="134.023" y1="274.37" x2="207.114" y2="323.8" gradientUnits="userSpaceOnUse">
<stop stop-color="#FF7EE9"/>
<stop offset="1" stop-color="#94369C"/>
</linearGradient>
<clipPath id="clip0_15_2">
<rect width="470" height="403" fill="white"/>
</clipPath>
</defs>
</svg>
